<svg xmlns="http://www.w3.org/2000/svg" version="1.0" width="394.000000" height="394.000000" preserveAspectRatio="xMidYMid meet"><rect id="backgroundrect" width="100%" height="100%" x="0" y="0" fill="none" stroke="none"/>


<g class="currentLayer" style=""><title>Layer 1</title><g transform="translate(0,394) scale(0.10000000149011612,-0.10000000149011612) " fill="#f9c06a" stroke="none" id="svg_1" class="" fill-opacity="1">
<path d="M1775 3929 c-602 -58 -1172 -416 -1486 -935 -189 -314 -282 -649 -283 -1019 0 -198 13 -310 59 -491 196 -768 809 -1324 1610 -1460 138 -24 452 -24 590 0 222 38 422 102 602 195 831 428 1242 1355 1002 2260 -247 929 -1131 1541 -2094 1450z m26 -1106 c39 -42 49 -66 49 -123 0 -62 -16 -94 -80 -166 -54 -58 -63 -93 -33 -126 15 -17 15 -21 0 -53 -9 -19 -23 -35 -32 -35 -8 0 -33 16 -55 36 -78 71 -60 148 64 268 99 97 110 144 48 218 -21 24 -22 29 -7 20 11 -5 32 -23 46 -39z m315 -60 c31 -71 8 -145 -70 -226 -56 -60 -65 -87 -38 -124 18 -25 19 -29 4 -60 -18 -39 -24 -40 -69 -12 -94 58 -82 164 30 265 104 95 122 154 71 230 l-26 39 42 -40 c23 -22 49 -54 56 -72z m489 -555 c2 -13 6 -41 7 -62 3 -39 5 -40 51 -52 252 -64 343 -285 176 -427 -84 -73 -194 -107 -341 -107 l-98 0 -43 -39 c-85 -77 -201 -138 -319 -166 -93 -22 -267 -20 -362 5 -267 68 -483 296 -541 571 -15 70 -20 234 -9 277 l6 22 734 0 734 0 5 -22z m111 -1025 c-9 -35 -34 -71 -70 -97 -27 -21 -38 -21 -744 -24 -394 -2 -736 0 -760 3 -52 8 -108 54 -121 99 -4 17 -6 34 -4 39 2 4 387 7 855 7 l850 0 -6 -27z" id="svg_2" fill="#f9c06a" fill-opacity="1"/>
<path d="M2605 1968 c-13 -93 -65 -227 -116 -299 -17 -24 -17 -28 -3 -33 21 -8 137 11 182 30 148 61 186 190 85 286 -27 26 -106 67 -130 68 -6 0 -14 -23 -18 -52z" id="svg_3" fill="#f9c06a" fill-opacity="1"/>
</g></g></svg>